# xmcd
#
# Track frame offsets:
#	150
#	11054
#	23279
#	36051
#	48054
#	64081
#	76207
#	85990
#	95755
#	110394
#
# Disc length: 1634 seconds
#
# Revision: 0
# Processed by: cddbd v1.5.2PL0 Copyright (c) Steve Scherf et al.
# Submitted via: audiograbber 1.83.01
#
DISCID=6a06600a
DTITLE=Dolly Parton - Love Is Like A Butterfly
DYEAR=1974
DGENRE=Country
TTITLE0=Love Is Like A Butterfly
TTITLE1=If I Cross Your Mind
TTITLE2=My Eyes Can Only See You
TTITLE3=Take Me Back
TTITLE4=Blackie, Kentucky
TTITLE5=Gettin' Happy
TTITLE6=You're The One That Tought Me
TTITLE7=Highway Headin' South
TTITLE8=Once Upon A Memory
TTITLE9=Sacred Memories
EXTD=
EXTT0=
EXTT1=
EXTT2=
EXTT3=
EXTT4=
EXTT5=
EXTT6=
EXTT7=
EXTT8=
EXTT9=
PLAYORDER=
